<?xml version="1.0" encoding="UTF-8" standalone="no"?>
<svg
   xmlns:dc="http://purl.org/dc/elements/1.1/"
   xmlns:cc="http://creativecommons.org/ns#"
   xmlns:rdf="http://www.w3.org/1999/02/22-rdf-syntax-ns#"
   xmlns:svg="http://www.w3.org/2000/svg"
   xmlns="http://www.w3.org/2000/svg"
   xmlns:sodipodi="http://sodipodi.sourceforge.net/DTD/sodipodi-0.dtd"
   xmlns:inkscape="http://www.inkscape.org/namespaces/inkscape"
   version="1.1"
   width="64"
   height="64"
   color-interpolation="linearRGB"
   id="svg2"
   inkscape:version="0.48.2 r9819"
   sodipodi:docname="open1.svg">
  <metadata
     id="metadata44">
    <rdf:RDF>
      <cc:Work
         rdf:about="">
        <dc:format>image/svg+xml</dc:format>
        <dc:type
           rdf:resource="http://purl.org/dc/dcmitype/StillImage" />
        <dc:title></dc:title>
      </cc:Work>
    </rdf:RDF>
  </metadata>
  <defs
     id="defs42" />
  <sodipodi:namedview
     pagecolor="#ffffff"
     bordercolor="#666666"
     borderopacity="1"
     objecttolerance="10"
     gridtolerance="10"
     guidetolerance="10"
     inkscape:pageopacity="0"
     inkscape:pageshadow="2"
     inkscape:window-width="1280"
     inkscape:window-height="975"
     id="namedview40"
     showgrid="false"
     inkscape:zoom="2.8284271"
     inkscape:cx="-15.726892"
     inkscape:cy="-65.201713"
     inkscape:window-x="-4"
     inkscape:window-y="26"
     inkscape:window-maximized="1"
     inkscape:current-layer="svg2" />
  <g
     id="g4">
    <path
       style="fill:#010101; fill-opacity:0.396"
       d="M42 61H48L52 57H56L62 51L48 47L42 61z"
       id="path6" />
    <path
       style="fill:none; stroke:#000000; stroke-width:4"
       d="M3 15L13 41L42 59L60 12L48 10L44 12L26 8L24 13L16 11L15.91 19.2L3 15z"
       id="path8" />
    <linearGradient
       id="gradient0"
       gradientUnits="userSpaceOnUse"
       x1="102.6"
       y1="8.5"
       x2="102.74"
       y2="47.07">
      <stop
         offset="0"
         stop-color="#face79"
         id="stop11" />
      <stop
         offset="1"
         stop-color="#bc4105"
         id="stop13" />
    </linearGradient>
    <path
       style="fill:url(#gradient0)"
       d="M26 8L14 41L42 58L60 12L48 10L44 12L26 8z"
       id="path15" />
    <linearGradient
       id="gradient1"
       gradientUnits="userSpaceOnUse"
       x1="103.24"
       y1="12.68"
       x2="103.39"
       y2="55.34">
      <stop
         offset="0"
         stop-color="#ffffff"
         id="stop18" />
      <stop
         offset="1"
         stop-color="#8e8e8e"
         id="stop20" />
    </linearGradient>
    <path
       style="fill:url(#gradient1)"
       d="M16 11V41L42 57L49 22L16 11z"
       id="path22" />
    <linearGradient
       id="gradient2"
       gradientUnits="userSpaceOnUse"
       x1="78.34"
       y1="-26.66"
       x2="101.46"
       y2="12.94">
      <stop
         offset="0"
         stop-color="#9a9a9a"
         id="stop25" />
      <stop
         offset="1"
         stop-color="#505050"
         id="stop27" />
    </linearGradient>
    <path
       style="fill:url(#gradient2)"
       d="M16 11L49 22L42 57L52 20.37L16 11z"
       id="path29" />
    <linearGradient
       id="gradient3"
       gradientUnits="userSpaceOnUse"
       x1="88.52"
       y1="9.59"
       x2="97.54"
       y2="51.29">
      <stop
         offset="0"
         stop-color="#ffe2ac"
         id="stop32" />
      <stop
         offset="1"
         stop-color="#f49806"
         id="stop34" />
    </linearGradient>
    <path
       style="fill:url(#gradient3)"
       d="M3 15L13 41L42 59L38 30L3 15z"
       id="path36" />
    <path
       style="fill:#a03d03"
       d="M3 15L38 30L42 59L40.5 28L3 15z"
       id="path38" />
  </g>
  <text
     xml:space="preserve"
     style="font-size:40px;font-style:normal;font-variant:normal;font-weight:900;font-stretch:normal;text-align:start;line-height:100%;letter-spacing:0px;word-spacing:0px;writing-mode:lr-tb;text-anchor:start;fill:#000000;fill-opacity:1;stroke:none;font-family:Arial Black;-inkscape-font-specification:'Arial Black, Heavy'"
     x="11.840097"
     y="60.401115"
     id="text3021"
     sodipodi:linespacing="100%"><tspan
       sodipodi:role="line"
       id="tspan3023"
       x="11.840097"
       y="60.401115">2</tspan></text>
</svg>
